# xmcd CD database file
#
# Track frame offsets:
#	150
#	18204
#	42224
#	61156
#
# Disc length: 1086 seconds
#
# Revision: 0
# Processed by: cddbd v1.5.2PL0 Copyright (c) Steve Scherf et al.
# Submitted via: CDex 1.77
#
DISCID=25043c04
DTITLE=A7IE - Occidere Mundi - The Remixes
DYEAR=2015
DGENRE=
TTITLE0=Occidere Mundi_ Olivier Wms Version
TTITLE1=Face To Death_ C-Lekktor Remix
TTITLE2=Occidere Mundi_ Antibiosis Remix
TTITLE3=The Evil In Us_ Miz(e)rebel Remix
EXTD=YEAR: 2015
EXTT0=
EXTT1=
EXTT2=
EXTT3=
PLAYORDER=
